<?xml version="1.0" encoding="utf-8"?>
<!-- Generator: Adobe Illustrator 24.3.0, SVG Export Plug-In . SVG Version: 6.00 Build 0)  -->
<svg version="1.1" id="Слой_1" xmlns="http://www.w3.org/2000/svg" xmlns:xlink="http://www.w3.org/1999/xlink" x="0px" y="0px"
	 viewBox="0 0 24.8 24.8" style="enable-background:new 0 0 24.8 24.8;" xml:space="preserve">
<style type="text/css">
	.st0{fill:#7074F9;}
	.st1{fill:none;stroke:#07083C;stroke-width:1.5;stroke-linecap:round;stroke-linejoin:round;}
</style>
<path class="st0" d="M14.7,6.2c0.1-0.4,0.6-0.4,0.8,0l0.4,1c0,0.1,0.1,0.2,0.2,0.2l1,0.3c0.4,0.1,0.4,0.6,0,0.8l-1,0.3
	c-0.1,0-0.2,0.1-0.2,0.2l-0.4,1c-0.1,0.4-0.6,0.4-0.8,0l-0.4-1c0-0.1-0.1-0.2-0.2-0.2l-1-0.3c-0.4-0.1-0.4-0.6,0-0.8l1-0.3
	c0.1,0,0.2-0.1,0.2-0.2L14.7,6.2z"/>
<path class="st0" d="M18.6,10.5c0.1-0.2,0.4-0.2,0.5,0l0.2,0.7c0,0.1,0.1,0.1,0.2,0.2l0.7,0.2c0.2,0.1,0.2,0.4,0,0.5l-0.7,0.2
	c-0.1,0-0.1,0.1-0.2,0.2l-0.2,0.7c-0.1,0.2-0.4,0.2-0.5,0l-0.2-0.7c0-0.1-0.1-0.1-0.2-0.2l-0.7-0.2c-0.2-0.1-0.2-0.4,0-0.5l0.7-0.2
	c0.1,0,0.1-0.1,0.2-0.2L18.6,10.5z"/>
<path class="st0" d="M20.5,0.4c0.2-0.5,0.9-0.5,1.1,0l0.6,1.8c0.1,0.2,0.2,0.3,0.4,0.4l1.8,0.6c0.5,0.2,0.5,0.9,0,1.1l-1.8,0.6
	c-0.2,0.1-0.3,0.2-0.4,0.4L21.6,7c-0.2,0.5-0.9,0.5-1.1,0l-0.6-1.8c-0.1-0.2-0.2-0.3-0.4-0.4l-1.8-0.6c-0.5-0.2-0.5-0.9,0-1.1
	l1.8-0.6c0.2-0.1,0.3-0.2,0.4-0.4L20.5,0.4z"/>
<path class="st1" d="M0.8,13.9C0.8,19.5,5.5,24,11.2,24c4.4,0,8.2-2.7,9.7-6.4c-1.2,0.5-2.5,0.8-3.9,0.8c-5.1,0-9.2-4-9.2-8.9
	c0-2.1,0.7-4,1.9-5.5C4.7,4.7,0.8,8.9,0.8,13.9z"/>
</svg>
